<?xml version="1.0" encoding="UTF-8" standalone="no"?>
<!-- Created with Inkscape (http://www.inkscape.org/) -->

<svg
   xmlns:dc="http://purl.org/dc/elements/1.1/"
   xmlns:cc="http://creativecommons.org/ns#"
   xmlns:rdf="http://www.w3.org/1999/02/22-rdf-syntax-ns#"
   xmlns:svg="http://www.w3.org/2000/svg"
   xmlns="http://www.w3.org/2000/svg"
   xmlns:sodipodi="http://sodipodi.sourceforge.net/DTD/sodipodi-0.dtd"
   xmlns:inkscape="http://www.inkscape.org/namespaces/inkscape"
   width="28.222221mm"
   height="25.400002mm"
   viewBox="0 0 99.999999 90.000006"
   id="svg2"
   version="1.1"
   inkscape:version="0.91 r13725"
   sodipodi:docname="small_transparent_grey.svg">
  <defs
     id="defs4">
    <clipPath
       clipPathUnits="userSpaceOnUse"
       id="clipPath3983-3">
      <rect
         style="fill:#edd400"
         id="rect3985-4"
         width="800"
         height="450"
         x="184.85793"
         y="73.04203" />
    </clipPath>
    <clipPath
       clipPathUnits="userSpaceOnUse"
       id="clipPath4517">
      <rect
         style="fill:#edd400"
         id="rect4519"
         width="294.90491"
         height="265.41443"
         x="498.98236"
         y="219.80652" />
    </clipPath>
  </defs>
  <sodipodi:namedview
     id="base"
     pagecolor="#cbc4b2"
     bordercolor="#666666"
     borderopacity="1.0"
     inkscape:pageopacity="0"
     inkscape:pageshadow="2"
     inkscape:zoom="1.4"
     inkscape:cx="281.55262"
     inkscape:cy="128.54714"
     inkscape:document-units="px"
     inkscape:current-layer="layer1"
     showgrid="false"
     inkscape:window-width="1920"
     inkscape:window-height="1005"
     inkscape:window-x="-9"
     inkscape:window-y="-9"
     inkscape:window-maximized="1"
     inkscape:showpageshadow="true"
     borderlayer="false"
     fit-margin-top="0"
     fit-margin-left="0"
     fit-margin-right="0"
     fit-margin-bottom="0" />
  <metadata
     id="metadata7">
    <rdf:RDF>
      <cc:Work
         rdf:about="">
        <dc:format>image/svg+xml</dc:format>
        <dc:type
           rdf:resource="http://purl.org/dc/dcmitype/StillImage" />
        <dc:title></dc:title>
      </cc:Work>
    </rdf:RDF>
  </metadata>
  <g
     inkscape:label="Capa 1"
     inkscape:groupmode="layer"
     id="layer1"
     transform="translate(-563.07849,-545.40387)">
    <g
       id="g3902"
       clip-path="url(#clipPath4517)"
       transform="matrix(0.33909235,0,0,0.33909235,393.87739,470.86916)"
       style="fill:#d3d7cf"
       mask="none">
      <rect
         transform="matrix(0.70710678,0.70710678,-0.70710678,0.70710678,0,0)"
         y="239.69191"
         x="-198.82666"
         height="10"
         width="900"
         id="rect3419"
         style="fill:#d3d7cf" />
      <rect
         transform="matrix(0.70710678,0.70710678,-0.70710678,0.70710678,0,0)"
         y="219.89293"
         x="-179.02765"
         height="10"
         width="900"
         id="rect3419-8"
         style="fill:#d3d7cf" />
      <rect
         transform="matrix(0.70710678,0.70710678,-0.70710678,0.70710678,0,0)"
         y="200.09392"
         x="-159.22864"
         height="10"
         width="900"
         id="rect3419-8-1"
         style="fill:#d3d7cf" />
      <rect
         transform="matrix(0.70710678,0.70710678,-0.70710678,0.70710678,0,0)"
         y="180.29492"
         x="-139.42963"
         height="10"
         width="900"
         id="rect3419-8-2"
         style="fill:#d3d7cf" />
      <rect
         transform="matrix(0.70710678,0.70710678,-0.70710678,0.70710678,0,0)"
         y="160.49591"
         x="-119.63062"
         height="10"
         width="900"
         id="rect3419-8-1-0"
         style="fill:#d3d7cf" />
      <rect
         transform="matrix(0.70710678,0.70710678,-0.70710678,0.70710678,0,0)"
         y="140.6969"
         x="-99.831726"
         height="10"
         width="900"
         id="rect3419-8-3"
         style="fill:#d3d7cf" />
      <rect
         transform="matrix(0.70710678,0.70710678,-0.70710678,0.70710678,0,0)"
         y="120.8979"
         x="-80.033142"
         height="10"
         width="900"
         id="rect3419-8-1-6"
         style="fill:#d3d7cf" />
      <rect
         transform="matrix(0.70710678,0.70710678,-0.70710678,0.70710678,0,0)"
         y="101.09888"
         x="-60.234554"
         height="10"
         width="900"
         id="rect3419-8-2-4"
         style="fill:#d3d7cf" />
      <rect
         transform="matrix(0.70710678,0.70710678,-0.70710678,0.70710678,0,0)"
         y="81.299873"
         x="-40.43597"
         height="10"
         width="900"
         id="rect3419-8-1-0-8"
         style="fill:#d3d7cf" />
      <rect
         transform="matrix(0.70710678,0.70710678,-0.70710678,0.70710678,0,0)"
         y="61.500957"
         x="-20.63513"
         height="10"
         width="900"
         id="rect3419-8-33"
         style="fill:#d3d7cf" />
      <rect
         transform="matrix(0.70710678,0.70710678,-0.70710678,0.70710678,0,0)"
         y="41.701962"
         x="-0.83636242"
         height="10"
         width="900"
         id="rect3419-8-1-05"
         style="fill:#d3d7cf" />
      <rect
         transform="matrix(0.70710678,0.70710678,-0.70710678,0.70710678,0,0)"
         y="21.902966"
         x="18.962221"
         height="10"
         width="900"
         id="rect3419-8-2-3"
         style="fill:#d3d7cf" />
      <rect
         transform="matrix(0.70710678,0.70710678,-0.70710678,0.70710678,0,0)"
         y="2.1039231"
         x="38.760807"
         height="10"
         width="900"
         id="rect3419-8-1-0-4"
         style="fill:#d3d7cf" />
      <rect
         transform="matrix(0.70710678,0.70710678,-0.70710678,0.70710678,0,0)"
         y="-17.695087"
         x="58.559391"
         height="10"
         width="900"
         id="rect3419-8-3-9"
         style="fill:#d3d7cf" />
      <rect
         transform="matrix(0.70710678,0.70710678,-0.70710678,0.70710678,0,0)"
         y="-37.494129"
         x="78.357971"
         height="10"
         width="900"
         id="rect3419-8-1-6-5"
         style="fill:#d3d7cf" />
      <rect
         transform="matrix(0.70710678,0.70710678,-0.70710678,0.70710678,0,0)"
         y="-57.293171"
         x="98.156555"
         height="10"
         width="900"
         id="rect3419-8-2-4-1"
         style="fill:#d3d7cf" />
      <rect
         transform="matrix(0.70710678,0.70710678,-0.70710678,0.70710678,0,0)"
         y="-77.092186"
         x="117.95514"
         height="10"
         width="900"
         id="rect3419-8-1-0-8-2"
         style="fill:#d3d7cf" />
      <rect
         transform="matrix(0.70710678,0.70710678,-0.70710678,0.70710678,0,0)"
         y="239.69191"
         x="-198.82666"
         height="10"
         width="900"
         id="rect3419-9"
         style="fill:#d3d7cf" />
      <rect
         transform="matrix(0.70710678,0.70710678,-0.70710678,0.70710678,0,0)"
         y="219.89293"
         x="-179.02765"
         height="10"
         width="900"
         id="rect3419-8-37"
         style="fill:#d3d7cf" />
      <rect
         transform="matrix(0.70710678,0.70710678,-0.70710678,0.70710678,0,0)"
         y="200.09392"
         x="-159.22864"
         height="10"
         width="900"
         id="rect3419-8-1-5"
         style="fill:#d3d7cf" />
      <rect
         transform="matrix(0.70710678,0.70710678,-0.70710678,0.70710678,0,0)"
         y="180.29492"
         x="-139.42963"
         height="10"
         width="900"
         id="rect3419-8-2-2"
         style="fill:#d3d7cf" />
      <rect
         transform="matrix(0.70710678,0.70710678,-0.70710678,0.70710678,0,0)"
         y="160.49593"
         x="-119.63062"
         height="10"
         width="900"
         id="rect3419-8-1-0-6"
         style="fill:#d3d7cf" />
      <rect
         transform="matrix(0.70710678,0.70710678,-0.70710678,0.70710678,0,0)"
         y="120.8979"
         x="-80.033142"
         height="10"
         width="900"
         id="rect3419-8-1-6-0"
         style="fill:#d3d7cf" />
      <rect
         transform="matrix(0.70710678,0.70710678,-0.70710678,0.70710678,0,0)"
         y="101.09888"
         x="-60.234554"
         height="10"
         width="900"
         id="rect3419-8-2-4-4"
         style="fill:#d3d7cf" />
      <rect
         transform="matrix(0.70710678,0.70710678,-0.70710678,0.70710678,0,0)"
         y="81.299873"
         x="-40.43597"
         height="10"
         width="900"
         id="rect3419-8-1-0-8-4"
         style="fill:#d3d7cf" />
      <rect
         transform="matrix(0.70710678,0.70710678,-0.70710678,0.70710678,0,0)"
         y="61.500957"
         x="-20.63513"
         height="10"
         width="900"
         id="rect3419-8-33-1"
         style="fill:#d3d7cf" />
      <rect
         transform="matrix(0.70710678,0.70710678,-0.70710678,0.70710678,0,0)"
         y="41.701962"
         x="-0.83636242"
         height="10"
         width="900"
         id="rect3419-8-1-05-4"
         style="fill:#d3d7cf" />
      <rect
         transform="matrix(0.70710678,0.70710678,-0.70710678,0.70710678,0,0)"
         y="21.902966"
         x="18.962221"
         height="10"
         width="900"
         id="rect3419-8-2-3-3"
         style="fill:#d3d7cf" />
      <rect
         transform="matrix(0.70710678,0.70710678,-0.70710678,0.70710678,0,0)"
         y="2.1039231"
         x="38.760807"
         height="10"
         width="900"
         id="rect3419-8-1-0-4-5"
         style="fill:#d3d7cf" />
      <rect
         transform="matrix(0.70710678,0.70710678,-0.70710678,0.70710678,0,0)"
         y="-17.695087"
         x="58.559391"
         height="10"
         width="900"
         id="rect3419-8-3-9-1"
         style="fill:#d3d7cf" />
      <rect
         transform="matrix(0.70710678,0.70710678,-0.70710678,0.70710678,0,0)"
         y="-37.494129"
         x="78.357971"
         height="10"
         width="900"
         id="rect3419-8-1-6-5-2"
         style="fill:#d3d7cf" />
      <rect
         transform="matrix(0.70710678,0.70710678,-0.70710678,0.70710678,0,0)"
         y="-57.293171"
         x="98.156555"
         height="10"
         width="900"
         id="rect3419-8-2-4-1-0"
         style="fill:#d3d7cf" />
      <rect
         transform="matrix(0.70710678,0.70710678,-0.70710678,0.70710678,0,0)"
         y="-77.092186"
         x="117.95514"
         height="10"
         width="900"
         id="rect3419-8-1-0-8-2-9"
         style="fill:#d3d7cf" />
      <rect
         transform="matrix(0.70710678,0.70710678,-0.70710678,0.70710678,0,0)"
         y="239.69191"
         x="-198.82666"
         height="10"
         width="900"
         id="rect3419-6"
         style="fill:#d3d7cf" />
      <rect
         transform="matrix(0.70710678,0.70710678,-0.70710678,0.70710678,0,0)"
         y="219.89293"
         x="-179.02765"
         height="10"
         width="900"
         id="rect3419-8-21"
         style="fill:#d3d7cf" />
      <rect
         transform="matrix(0.70710678,0.70710678,-0.70710678,0.70710678,0,0)"
         y="200.09392"
         x="-159.22864"
         height="10"
         width="900"
         id="rect3419-8-1-8"
         style="fill:#d3d7cf" />
      <rect
         transform="matrix(0.70710678,0.70710678,-0.70710678,0.70710678,0,0)"
         y="180.29492"
         x="-139.42963"
         height="10"
         width="900"
         id="rect3419-8-2-26"
         style="fill:#d3d7cf" />
      <rect
         transform="matrix(0.70710678,0.70710678,-0.70710678,0.70710678,0,0)"
         y="160.49593"
         x="-119.63062"
         height="10"
         width="900"
         id="rect3419-8-1-0-1"
         style="fill:#d3d7cf" />
      <rect
         transform="matrix(0.70710678,0.70710678,-0.70710678,0.70710678,0,0)"
         y="140.6969"
         x="-99.831726"
         height="10"
         width="900"
         id="rect3419-8-3-1"
         style="fill:#d3d7cf" />
      <rect
         transform="matrix(0.70710678,0.70710678,-0.70710678,0.70710678,0,0)"
         y="120.8979"
         x="-80.033142"
         height="10"
         width="900"
         id="rect3419-8-1-6-6"
         style="fill:#d3d7cf" />
      <rect
         transform="matrix(0.70710678,0.70710678,-0.70710678,0.70710678,0,0)"
         y="101.09888"
         x="-60.234554"
         height="10"
         width="900"
         id="rect3419-8-2-4-42"
         style="fill:#d3d7cf" />
      <rect
         transform="matrix(0.70710678,0.70710678,-0.70710678,0.70710678,0,0)"
         y="81.299873"
         x="-40.43597"
         height="10"
         width="900"
         id="rect3419-8-1-0-8-3"
         style="fill:#d3d7cf" />
      <rect
         transform="matrix(0.70710678,0.70710678,-0.70710678,0.70710678,0,0)"
         y="61.500957"
         x="-20.63513"
         height="10"
         width="900"
         id="rect3419-8-33-15"
         style="fill:#d3d7cf" />
      <rect
         transform="matrix(0.70710678,0.70710678,-0.70710678,0.70710678,0,0)"
         y="41.701962"
         x="-0.83636242"
         height="10"
         width="900"
         id="rect3419-8-1-05-3"
         style="fill:#d3d7cf" />
      <rect
         transform="matrix(0.70710678,0.70710678,-0.70710678,0.70710678,0,0)"
         y="21.902966"
         x="18.962221"
         height="10"
         width="900"
         id="rect3419-8-2-3-1"
         style="fill:#d3d7cf" />
      <rect
         transform="matrix(0.70710678,0.70710678,-0.70710678,0.70710678,0,0)"
         y="2.1039231"
         x="38.760807"
         height="10"
         width="900"
         id="rect3419-8-1-0-4-4"
         style="fill:#d3d7cf" />
      <rect
         transform="matrix(0.70710678,0.70710678,-0.70710678,0.70710678,0,0)"
         y="-17.695087"
         x="58.559391"
         height="10"
         width="900"
         id="rect3419-8-3-9-8"
         style="fill:#d3d7cf" />
      <rect
         transform="matrix(0.70710678,0.70710678,-0.70710678,0.70710678,0,0)"
         y="-37.494129"
         x="78.357971"
         height="10"
         width="900"
         id="rect3419-8-1-6-5-3"
         style="fill:#d3d7cf" />
      <rect
         transform="matrix(0.70710678,0.70710678,-0.70710678,0.70710678,0,0)"
         y="-57.293171"
         x="98.156555"
         height="10"
         width="900"
         id="rect3419-8-2-4-1-1"
         style="fill:#d3d7cf" />
      <rect
         transform="matrix(0.70710678,0.70710678,-0.70710678,0.70710678,0,0)"
         y="-77.092186"
         x="117.95514"
         height="10"
         width="900"
         id="rect3419-8-1-0-8-2-3"
         style="fill:#d3d7cf" />
      <rect
         transform="matrix(0.70710678,0.70710678,-0.70710678,0.70710678,0,0)"
         y="-96.99157"
         x="137.85736"
         height="10"
         width="900"
         id="rect3419-8-8"
         style="fill:#d3d7cf" />
      <rect
         transform="matrix(0.70710678,0.70710678,-0.70710678,0.70710678,0,0)"
         y="-116.79061"
         x="157.65637"
         height="10"
         width="900"
         id="rect3419-8-1-9"
         style="fill:#d3d7cf" />
      <rect
         transform="matrix(0.70710678,0.70710678,-0.70710678,0.70710678,0,0)"
         y="-136.58961"
         x="177.45538"
         height="10"
         width="900"
         id="rect3419-8-2-43"
         style="fill:#d3d7cf" />
      <rect
         transform="matrix(0.70710678,0.70710678,-0.70710678,0.70710678,0,0)"
         y="-156.38853"
         x="197.25397"
         height="10"
         width="900"
         id="rect3419-8-1-0-60"
         style="fill:#d3d7cf" />
      <rect
         transform="matrix(0.70710678,0.70710678,-0.70710678,0.70710678,0,0)"
         y="-176.18755"
         x="217.05255"
         height="10"
         width="900"
         id="rect3419-8-3-6"
         style="fill:#d3d7cf" />
      <rect
         transform="matrix(0.70710678,0.70710678,-0.70710678,0.70710678,0,0)"
         y="-195.98656"
         x="236.85114"
         height="10"
         width="900"
         id="rect3419-8-1-6-00"
         style="fill:#d3d7cf" />
      <rect
         transform="matrix(0.70710678,0.70710678,-0.70710678,0.70710678,0,0)"
         y="-215.78563"
         x="256.64972"
         height="10"
         width="900"
         id="rect3419-8-2-4-43"
         style="fill:#d3d7cf" />
      <rect
         transform="matrix(0.70710678,0.70710678,-0.70710678,0.70710678,0,0)"
         y="-235.58464"
         x="276.4483"
         height="10"
         width="900"
         id="rect3419-8-1-0-8-5"
         style="fill:#d3d7cf" />
      <rect
         transform="matrix(0.70710678,0.70710678,-0.70710678,0.70710678,0,0)"
         y="-255.3838"
         x="296.24908"
         height="10"
         width="900"
         id="rect3419-8-33-8"
         style="fill:#d3d7cf" />
      <rect
         transform="matrix(0.70710678,0.70710678,-0.70710678,0.70710678,0,0)"
         y="-275.18292"
         x="316.04779"
         height="10"
         width="900"
         id="rect3419-8-1-05-46"
         style="fill:#d3d7cf" />
      <rect
         transform="matrix(0.70710678,0.70710678,-0.70710678,0.70710678,0,0)"
         y="-294.98206"
         x="335.84644"
         height="10"
         width="900"
         id="rect3419-8-2-3-7"
         style="fill:#d3d7cf" />
      <rect
         transform="matrix(0.70710678,0.70710678,-0.70710678,0.70710678,0,0)"
         y="-314.78113"
         x="355.64508"
         height="10"
         width="900"
         id="rect3419-8-1-0-4-52"
         style="fill:#d3d7cf" />
      <rect
         transform="matrix(0.70710678,0.70710678,-0.70710678,0.70710678,0,0)"
         y="-334.58014"
         x="375.44354"
         height="10"
         width="900"
         id="rect3419-8-3-9-7"
         style="fill:#d3d7cf" />
      <rect
         transform="matrix(0.70710678,0.70710678,-0.70710678,0.70710678,0,0)"
         y="-354.37915"
         x="395.24207"
         height="10"
         width="900"
         id="rect3419-8-1-6-5-1"
         style="fill:#d3d7cf" />
      <rect
         transform="matrix(0.70710678,0.70710678,-0.70710678,0.70710678,0,0)"
         y="-374.17822"
         x="415.04083"
         height="10"
         width="900"
         id="rect3419-8-2-4-1-5"
         style="fill:#d3d7cf" />
      <rect
         transform="matrix(0.70710678,0.70710678,-0.70710678,0.70710678,0,0)"
         y="-393.97723"
         x="434.83917"
         height="10"
         width="900"
         id="rect3419-8-1-0-8-2-98"
         style="fill:#d3d7cf" />
      <rect
         transform="matrix(0.70710678,0.70710678,-0.70710678,0.70710678,0,0)"
         y="-413.77591"
         x="454.64114"
         height="10"
         width="900"
         id="rect3419-8-33-8-5"
         style="fill:#d3d7cf" />
      <rect
         transform="matrix(0.70710678,0.70710678,-0.70710678,0.70710678,0,0)"
         y="-433.57504"
         x="474.43985"
         height="10"
         width="900"
         id="rect3419-8-1-05-46-7"
         style="fill:#d3d7cf" />
      <rect
         transform="matrix(0.70710678,0.70710678,-0.70710678,0.70710678,0,0)"
         y="-453.37418"
         x="494.23846"
         height="10"
         width="900"
         id="rect3419-8-2-3-7-0"
         style="fill:#d3d7cf" />
      <rect
         transform="matrix(0.70710678,0.70710678,-0.70710678,0.70710678,0,0)"
         y="-473.17325"
         x="514.03705"
         height="10"
         width="900"
         id="rect3419-8-1-0-4-52-5"
         style="fill:#d3d7cf" />
      <rect
         transform="matrix(0.70710678,0.70710678,-0.70710678,0.70710678,0,0)"
         y="-492.97223"
         x="533.83551"
         height="10"
         width="900"
         id="rect3419-8-3-9-7-2"
         style="fill:#d3d7cf" />
      <rect
         transform="matrix(0.70710678,0.70710678,-0.70710678,0.70710678,0,0)"
         y="-512.77124"
         x="553.63403"
         height="10"
         width="900"
         id="rect3419-8-1-6-5-1-6"
         style="fill:#d3d7cf" />
      <rect
         transform="matrix(0.70710678,0.70710678,-0.70710678,0.70710678,0,0)"
         y="-532.57025"
         x="573.4328"
         height="10"
         width="900"
         id="rect3419-8-2-4-1-5-6"
         style="fill:#d3d7cf" />
      <rect
         transform="matrix(0.70710678,0.70710678,-0.70710678,0.70710678,0,0)"
         y="-552.36926"
         x="593.23114"
         height="10"
         width="900"
         id="rect3419-8-1-0-8-2-98-1"
         style="fill:#d3d7cf" />
      <rect
         transform="matrix(0.70710678,0.70710678,-0.70710678,0.70710678,0,0)"
         y="-572.16699"
         x="613.02997"
         height="10"
         width="900"
         id="rect3419-8-1-0-4-52-5-7"
         style="fill:#d3d7cf" />
      <rect
         transform="matrix(0.70710678,0.70710678,-0.70710678,0.70710678,0,0)"
         y="-591.96558"
         x="632.82843"
         height="10"
         width="900"
         id="rect3419-8-3-9-7-2-3"
         style="fill:#d3d7cf" />
      <rect
         transform="matrix(0.70710678,0.70710678,-0.70710678,0.70710678,0,0)"
         y="-611.76416"
         x="652.62695"
         height="10"
         width="900"
         id="rect3419-8-1-6-5-1-6-0"
         style="fill:#d3d7cf" />
      <rect
         transform="matrix(0.70710678,0.70710678,-0.70710678,0.70710678,0,0)"
         y="-631.56317"
         x="672.42572"
         height="10"
         width="900"
         id="rect3419-8-2-4-1-5-6-9"
         style="fill:#d3d7cf" />
      <rect
         transform="matrix(0.70710678,0.70710678,-0.70710678,0.70710678,0,0)"
         y="-651.36218"
         x="692.22406"
         height="10"
         width="900"
         id="rect3419-8-1-0-8-2-98-1-3"
         style="fill:#d3d7cf" />
    </g>
  </g>
</svg>
